<?xml version="1.0" encoding="utf-8"?>
<!-- Generator: Adobe Illustrator 24.1.0, SVG Export Plug-In . SVG Version: 6.00 Build 0)  -->
<svg version="1.1" id="Capa_1" xmlns="http://www.w3.org/2000/svg" xmlns:xlink="http://www.w3.org/1999/xlink" x="0px" y="0px"
	 viewBox="0 0 512 512" style="enable-background:new 0 0 512 512;" xml:space="preserve">
<style type="text/css">
	.st0{fill:#FFFFFF;}
</style>
<g>
	<g>
		<path class="st0" d="M504.2,256c0-4.1-3.4-7.5-7.5-7.5H16.7c-4.1,0-7.5,3.4-7.5,7.5s3.4,7.5,7.5,7.5h72.6l-34.8,49.1H30.7
			c-4.1,0-7.5,3.4-7.5,7.5c0,4.1,3.4,7.5,7.5,7.5h13.1l-21.3,30c-2.2,3.1-1.7,7.4,1.1,10c3.3,2.9,8.6,2.3,11.1-1.3l27.5-38.7h44.3
			l-25.3,49.1H40.1c-4.2,0-7.5,3.4-7.5,7.5s3.4,7.5,7.5,7.5h33.4l-25.3,49.1H15.4c-4.2,0-7.5,3.4-7.5,7.5s3.4,7.5,7.5,7.5h25L17,501
			c-1.8,3.4-0.6,7.7,2.6,9.8c3.7,2.4,8.7,1,10.7-2.9l26.9-52h63.9L104.8,502c-1.3,3.7,0.5,7.8,4,9.4c3.9,1.7,8.7-0.3,10.1-4.4
			l18.1-51.1h63.2l-7.6,47.4c-0.6,4,2.1,7.9,6.1,8.6c4.1,0.7,8.1-2.1,8.8-6.2l8-49.8h81.3l8,49.8c0.7,4.1,4.7,6.9,8.8,6.2
			c4-0.7,6.7-4.6,6.1-8.6l-7.6-47.4h63.2l18.1,51.1c1.4,4.1,6.2,6.1,10.1,4.4c3.6-1.6,5.3-5.7,4-9.4l-16.4-46.1h63.9l26.9,52
			c2,3.9,7,5.2,10.7,2.9c3.2-2.1,4.4-6.4,2.6-9.8L472,455.9h21.6c4.2,0,7.5-3.4,7.5-7.5s-3.4-7.5-7.5-7.5h-29.4l-25.3-49.1h39.4
			c4.2,0,7.5-3.4,7.5-7.5s-3.4-7.5-7.5-7.5h-47.1l-25.3-49.1h44.3l28.9,40.7c2.6,3.6,7.8,4.2,11.1,1.3c2.8-2.5,3.3-6.9,1.1-10
			l-22.7-32h11.1c4.2,0,7.5-3.4,7.5-7.5c0-4.1-3.4-7.5-7.5-7.5h-21.7L423,263.5h73.6C500.8,263.5,504.2,260.2,504.2,256z
			 M355.8,263.5l25.3,49.1h-40.8l-17.4-49.1H355.8z M307,263.5l17.4,49.1h-35.4l-7.9-49.1H307z M246.5,263.5h19.3l7.9,49.1h-35.1
			L246.5,263.5z M276.1,327.6l7.9,49.1h-55.8l7.9-49.1H276.1z M231.3,263.5l-7.9,49.1h-35.4l17.4-49.1H231.3z M189.4,263.5
			L172,312.6h-40.8l25.3-49.1H189.4z M72.9,312.6l34.8-49.1h31.9l-25.3,49.1H72.9z M123.4,327.6h43.2l-17.4,49.1H98.1L123.4,327.6z
			 M126.5,440.9H65l25.3-49.1h53.6L126.5,440.9z M202.7,440.9h-60.3l17.4-49.1h50.8L202.7,440.9z M213.1,376.7h-47.9l17.4-49.1H221
			L213.1,376.7z M217.9,440.9l7.9-49.1h60.6l7.9,49.1H217.9z M291.4,327.6h38.4l17.4,49.1h-47.9L291.4,327.6z M309.6,440.9
			l-7.9-49.1h50.8l17.4,49.1H309.6z M447.3,440.9h-61.5l-17.4-49.1H422L447.3,440.9z M414.2,376.7h-51.1l-17.4-49.1h43.2
			L414.2,376.7z M439.4,312.6H398l-25.3-49.1h31.9L439.4,312.6z"/>
	</g>
</g>
<g>
	<g>
		<path class="st0" d="M263.7,120.8v-1.6h0.5c4.2,0,7.5-3.4,7.5-7.5s-3.4-7.5-7.5-7.5h-0.5V7.5c0-4.2-3.4-7.5-7.5-7.5
			c-4.1,0-7.5,3.4-7.5,7.5v96.7h-0.5c-4.1,0-7.5,3.4-7.5,7.5s3.4,7.5,7.5,7.5h0.5v1.6c-22.7,3.6-40.1,23.3-40.1,47
			c0,26.2,21.4,47.6,47.6,47.6s47.6-21.4,47.6-47.6C303.8,144.1,286.4,124.4,263.7,120.8z M224.5,175.3h8.4c0.4,6.2,1.4,12.4,3,17.9
			C230.3,188.8,226.2,182.5,224.5,175.3z M232.9,160.3h-8.4c1.7-7.2,5.8-13.5,11.4-17.9C234.3,147.9,233.3,154.1,232.9,160.3z
			 M256.2,200.3c-2.3-1.3-7-9.7-8.2-25h16.4C263.2,190.6,258.4,199,256.2,200.3z M247.9,160.3c1.2-15.2,5.9-23.7,8.2-25
			c2.3,1.3,7,9.7,8.2,25H247.9z M276.4,193.3c1.6-5.5,2.6-11.7,3-17.9h8.4C286.1,182.5,282,188.8,276.4,193.3z M279.4,160.3
			c-0.4-6.2-1.4-12.4-3-17.9c5.6,4.5,9.7,10.8,11.4,17.9H279.4z"/>
	</g>
</g>
<g>
	<g>
		<path class="st0" d="M440,80.8v-1.6h0.5c4.2,0,7.5-3.4,7.5-7.5s-3.4-7.5-7.5-7.5H440V7.5c0-4.2-3.4-7.5-7.5-7.5S425,3.4,425,7.5
			v56.6h-0.5c-4.2,0-7.5,3.4-7.5,7.5s3.4,7.5,7.5,7.5h0.5v1.6c-22.7,3.6-40.1,23.3-40.1,47c0,26.2,21.4,47.6,47.6,47.6
			c26.2,0,47.6-21.4,47.6-47.6C480.1,104.1,462.7,84.4,440,80.8z M400.8,135.3h8.4c0.4,6.2,1.4,12.4,3,17.9
			C406.6,148.7,402.5,142.5,400.8,135.3z M409.2,120.2h-8.4c1.7-7.2,5.8-13.5,11.4-17.9C410.7,107.8,409.7,114,409.2,120.2z
			 M432.5,160.2c-2.3-1.3-7-9.7-8.2-25h16.4C439.5,150.5,434.8,158.9,432.5,160.2z M424.3,120.2c1.2-15.2,5.9-23.7,8.2-25
			c2.3,1.3,7,9.7,8.2,25H424.3z M452.8,153.2c1.6-5.5,2.6-11.7,3-17.9h8.4C462.5,142.5,458.4,148.7,452.8,153.2z M455.8,120.2
			c-0.4-6.2-1.4-12.4-3-17.9c5.6,4.5,9.7,10.8,11.4,17.9H455.8z"/>
	</g>
</g>
<g>
	<g>
		<path class="st0" d="M87.3,80.8v-1.6h0.5c4.2,0,7.5-3.4,7.5-7.5s-3.4-7.5-7.5-7.5h-0.5V7.5C87.3,3.4,84,0,79.8,0s-7.5,3.4-7.5,7.5
			v56.6h-0.5c-4.2,0-7.5,3.4-7.5,7.5s3.4,7.5,7.5,7.5h0.5v1.6c-22.7,3.6-40.1,23.3-40.1,47c0,26.2,21.4,47.6,47.6,47.6
			s47.6-21.4,47.6-47.6C127.4,104.1,110,84.4,87.3,80.8z M48.1,135.3h8.4c0.4,6.2,1.4,12.4,3,17.9C54,148.7,49.8,142.5,48.1,135.3z
			 M56.5,120.2h-8.4c1.7-7.2,5.8-13.5,11.4-17.9C58,107.8,57,114,56.5,120.2z M79.8,160.2c-2.3-1.3-7-9.7-8.2-25H88
			C86.8,150.5,82.1,158.9,79.8,160.2z M71.6,120.2c1.2-15.2,5.9-23.7,8.2-25c2.3,1.3,7,9.7,8.2,25H71.6z M100.1,153.2
			c1.6-5.5,2.6-11.7,3-17.9h8.4C109.8,142.5,105.7,148.7,100.1,153.2z M103.1,120.2c-0.4-6.2-1.4-12.4-3-17.9
			c5.6,4.5,9.7,10.8,11.4,17.9H103.1z"/>
	</g>
</g>
<g>
	<g>
		<path class="st0" d="M376.4,72.1c-12.6,0-24.5-18.3-24.5-32.6c0-4.2-3.4-7.5-7.5-7.5s-7.5,3.4-7.5,7.5c0,14.2-11.9,32.6-24.5,32.6
			c-4.2,0-7.5,3.4-7.5,7.5s3.4,7.5,7.5,7.5c12.6,0,24.5,18.3,24.5,32.6c0,4.2,3.4,7.5,7.5,7.5s7.5-3.4,7.5-7.5
			c0-14.2,11.9-32.6,24.5-32.6c4.2,0,7.5-3.4,7.5-7.5S380.6,72.1,376.4,72.1z M344.3,93.5c-3.1-5.4-7.2-10.1-11.8-13.8
			c4.7-3.7,8.7-8.5,11.8-13.8c3.1,5.4,7.2,10.1,11.8,13.8C351.5,83.3,347.5,88.1,344.3,93.5z"/>
	</g>
</g>
<g>
	<g>
		<path class="st0" d="M200.1,72.1c-12.6,0-24.5-18.3-24.5-32.6c0-4.2-3.4-7.5-7.5-7.5s-7.5,3.4-7.5,7.5c0,14.2-11.9,32.6-24.5,32.6
			c-4.1,0-7.5,3.4-7.5,7.5s3.4,7.5,7.5,7.5c12.6,0,24.5,18.3,24.5,32.6c0,4.2,3.4,7.5,7.5,7.5s7.5-3.4,7.5-7.5
			c0-14.2,11.9-32.6,24.5-32.6c4.1,0,7.5-3.4,7.5-7.5S204.2,72.1,200.1,72.1z M168,93.5c-3.1-5.4-7.2-10.1-11.8-13.8
			c4.7-3.7,8.7-8.5,11.8-13.8c3.1,5.4,7.2,10.1,11.8,13.8C175.2,83.3,171.1,88.1,168,93.5z"/>
	</g>
</g>
</svg>
