<?xml version="1.0" encoding="utf-8"?>
<!-- Generator: Adobe Illustrator 24.1.0, SVG Export Plug-In . SVG Version: 6.00 Build 0)  -->
<svg version="1.1" id="Layer_1" xmlns="http://www.w3.org/2000/svg" xmlns:xlink="http://www.w3.org/1999/xlink" x="0px" y="0px"
	 viewBox="0 0 512 512" style="enable-background:new 0 0 512 512;" xml:space="preserve">
<style type="text/css">
	.st0{fill:#FFFFFF;}
</style>
<g>
	<g>
		<path class="st0" d="M480,0H32c-5.9,0-10.7,4.8-10.7,10.7v490.7c0,5.9,4.8,10.7,10.7,10.7h448c5.9,0,10.7-4.8,10.7-10.7V10.7
			C490.7,4.8,485.9,0,480,0z M469.3,490.7H42.7V21.3h426.7L469.3,490.7L469.3,490.7z"/>
	</g>
</g>
<g>
	<g>
		<path class="st0" d="M437.3,42.7H266.7h-21.3H74.7c-5.9,0-10.7,4.8-10.7,10.7v192v21.3v192c0,5.9,4.8,10.7,10.7,10.7h170.7h21.3
			h170.7c5.9,0,10.7-4.8,10.7-10.7v-192v-21.3v-192C448,47.4,443.2,42.7,437.3,42.7z M245.3,448h-160V266.7h160V448z M245.3,245.3
			h-160V64h160V245.3z M426.7,448h-160V266.7h160V448z M426.7,245.3h-160V64h160V245.3z"/>
	</g>
</g>
</svg>
